<svg xmlns="http://www.w3.org/2000/svg" viewBox="0 0 70 88"><title>しずかなインターネット</title><path d="m23,63.5c2.9-1.9,6-3.8,9.5-4.2s7.5,1.2,8.6,4.5c1.5,4.2-2.2,8.4-5.8,11-3.4,2.5-7.1,4.6-11.2,5.6-4.1,1-8.6.7-12.3-1.3-4.3-2.4-6.9-7-7.9-11.8s-.4-9.7.4-14.5C7.4,36,14.5,19.7,26.2,7.3c2.5-2.7,6.1-5.4,9.6-4,3.4,1.4,4.2,5.8,4.1,9.5-.3,11.3-3.3,22.4-8.7,32.3-.7,1.2-1.4,2.5-2.6,3.3s-2.8,1.1-4,.4c-2.2-1.4-1.3-4.9.3-7,3.4-4.8,8.2-8.4,13.8-10.4,3.9-1.4,8.6-1.7,11.7.9,2.4,2.1,3.2,5.5,2.7,8.6s-2.2,5.9-4.1,8.4c-1.4,1.8-3.7,3.6-5.6,2.4-2.2-1.3-1.1-4.7.4-6.8,2.7-4,6.3-8.2,11.1-8.8,5.2-.6,10.1,3.3,11.8,8.2s.7,10.3-1.5,15c-4,8.9-12,15.9-21.4,18.7" fill="none" stroke="#fff" stroke-width="3.8"></path></svg>
