<svg xmlns="http://www.w3.org/2000/svg" viewBox="0 0 188.15 181.66"><title>traP ブログ</title><path d="m161.22 122.21-19.4 4.86a62.61 62.61 0 0 1-73.54 22.13l10.44-10.76a49.1 49.1 0 0 0 59.34-34.1l26.58 8.66a78.49 78.49 0 0 1-3.42 9.2m20.24-25.36q.19-3 .2-6A91.57 91.57 0 0 0 179.9 73l-12.78 7.1a76.74 76.74 0 0 1 .76 10.78c0 1.63-.06 3.24-.16 4.84l-27.82-2.44c0-.81.06-1.63.06-2.45a48.87 48.87 0 0 0-9.96-29.6l-1.26 1a47.5 47.5 0 0 1 7.12 13.54l-1.41.75a46 46 0 0 1 2.3 14.35c0 .73 0 1.46-.06 2.18L113.8 91a23.16 23.16 0 0 1-.64 5.17l21.84 7.18a46 46 0 0 1-44.21 33.43 45.39 45.39 0 0 1-9.53-1l13.77-14.19-32.51-3.89-2.44-30.76-27.22 27.43A62.58 62.58 0 0 1 53.14 40.9l1.8-7a66.91 66.91 0 0 1 35.89-10.4c1.58 0 3.14.06 4.69.17l4.77 8a59.41 59.41 0 0 1 20.37 7.23l2.68-2.53a62.85 62.85 0 0 0-21.32-8l-4.82-8.11Q94 20 90.83 20a70.53 70.53 0 0 0-34.66 9l2-8a76.68 76.68 0 0 1 32.62-7.24c2.37 0 4.71.12 7 .33l7.1-13A92.46 92.46 0 0 0 90.83 0a90.86 90.86 0 0 0-77.75 137.82l-9.43 40.9 41.74-9.23a90.87 90.87 0 0 0 132.35-52.21l6.39 2.09a97.5 97.5 0 0 0 4-22l-6.69-.57Z" style="fill:#fff"/></svg>
