<?xml version="1.0" encoding="UTF-8"?>
<svg version="1.1" xmlns="http://www.w3.org/2000/svg" width="2400" height="2453">
<path d="M0 0 C68.03504816 -0.4114023 136.07024494 -0.79298247 204.10620117 -1.01623535 C205.61694592 -1.02120541 205.61694592 -1.02120541 207.15821077 -1.02627587 C229.04727858 -1.09810787 250.93635958 -1.16459192 272.82546026 -1.22556791 C283.56007538 -1.25550364 294.29468694 -1.28662098 305.02929688 -1.31835938 C306.0975121 -1.32149759 307.16572732 -1.32463581 308.2663127 -1.32786912 C342.88227545 -1.4301181 377.49729715 -1.61037002 412.11268993 -1.8311333 C447.68853328 -2.05760952 483.26385599 -2.20527171 518.84040804 -2.25395976 C523.86682243 -2.26087534 528.89323504 -2.26869062 533.91964722 -2.27705383 C535.40353268 -2.27948106 535.40353268 -2.27948106 536.91739563 -2.28195732 C552.83373491 -2.31030486 568.74846301 -2.42157572 584.66414554 -2.56396881 C600.67027723 -2.70539746 616.67481403 -2.75920042 632.68154848 -2.72403306 C642.18972361 -2.7057939 651.69205637 -2.75425619 661.1991745 -2.89914103 C667.55712607 -2.98940127 673.91127054 -2.99177016 680.26948908 -2.92396353 C683.89112973 -2.88782104 687.50177408 -2.88865338 691.12221444 -2.99719638 C711.8969256 -3.58392273 711.8969256 -3.58392273 718.65105987 2.31562793 C723.49391651 8.00308544 726.96988005 14.26648033 730.32292402 20.90917557 C732.5758316 25.0612485 735.28921617 28.76043186 738.13277751 32.52380982 C741.3105804 36.73800731 744.22957587 41.13008567 747.1875 45.5 C748.49855669 47.42978345 749.80975723 49.35946919 751.12109375 51.2890625 C752.0953833 52.72427246 752.0953833 52.72427246 753.08935547 54.18847656 C755.96732417 58.42342258 758.85762085 62.6498878 761.75 66.875 C762.28181885 67.65206299 762.8136377 68.42912598 763.36157227 69.22973633 C768.11719975 76.1758702 772.88523552 83.11344124 777.65722656 90.04833984 C779.93908519 93.36491764 782.21945755 96.6825171 784.5 100 C785.41665976 101.33333808 786.33332642 102.66667142 787.25 104 C817.5 148 817.5 148 847.75 192 C848.4303833 192.98963745 848.4303833 192.98963745 849.12451172 193.99926758 C850.04283361 195.33502333 850.9611278 196.67079812 851.87939453 198.0065918 C854.14551157 201.30301745 856.41208059 204.59913027 858.6796875 207.89453125 C864.18518464 215.89670733 869.67634388 223.90854995 875.15917969 231.92626953 C879.98034499 238.97489904 884.81630573 246.013269 889.65722656 253.04833984 C891.93908519 256.36491764 894.21945755 259.6825171 896.5 263 C897.41665976 264.33333808 898.33332642 265.66667142 899.25 267 C929.5 311 929.5 311 959.75 355 C960.20358887 355.6597583 960.65717773 356.3195166 961.12451172 356.99926758 C962.04283361 358.33502333 962.9611278 359.67079812 963.87939453 361.0065918 C966.14551157 364.30301745 968.41208059 367.59913027 970.6796875 370.89453125 C976.18518464 378.89670733 981.67634388 386.90854995 987.15917969 394.92626953 C991.98034499 401.97489904 996.81630573 409.013269 1001.65722656 416.04833984 C1003.93908519 419.36491764 1006.21945755 422.6825171 1008.5 426 C1009.41665976 427.33333808 1010.33332642 428.66667142 1011.25 430 C1027.75 454 1044.25 478 1060.75 502 C1061.20358887 502.6597583 1061.65717773 503.3195166 1062.12451172 503.99926758 C1063.04283361 505.33502333 1063.9611278 506.67079812 1064.87939453 508.0065918 C1067.14551157 511.30301745 1069.41208059 514.59913027 1071.6796875 517.89453125 C1077.18518464 525.89670733 1082.67634388 533.90854995 1088.15917969 541.92626953 C1092.98034499 548.97489904 1097.81630573 556.013269 1102.65722656 563.04833984 C1104.93908519 566.36491764 1107.21945755 569.6825171 1109.5 573 C1110.41665976 574.33333808 1111.33332642 575.66667142 1112.25 577 C1132.41666667 606.33333333 1152.58333333 635.66666667 1172.75 665 C1173.20358887 665.6597583 1173.65717773 666.3195166 1174.12451172 666.99926758 C1175.04283361 668.33502333 1175.9611278 669.67079812 1176.87939453 671.0065918 C1179.14551157 674.30301745 1181.41208059 677.59913027 1183.6796875 680.89453125 C1189.18518464 688.89670733 1194.67634388 696.90854995 1200.15917969 704.92626953 C1204.98034499 711.97489904 1209.81630573 719.013269 1214.65722656 726.04833984 C1216.93908519 729.36491764 1219.21945755 732.6825171 1221.5 736 C1222.41665976 737.33333808 1223.33332642 738.66667142 1224.25 740 C1244.41666667 769.33333333 1264.58333333 798.66666667 1284.75 828 C1285.20358887 828.6597583 1285.65717773 829.3195166 1286.12451172 829.99926758 C1287.04283361 831.33502333 1287.9611278 832.67079812 1288.87939453 834.0065918 C1291.14551157 837.30301745 1293.41208059 840.59913027 1295.6796875 843.89453125 C1301.18161333 851.89151647 1306.66997387 859.8976436 1312.14819336 867.91088867 C1315.73479994 873.15573244 1319.33318826 878.39231282 1322.9375 883.625 C1326.67400128 889.05117159 1330.37716898 894.49696555 1334 900 C1337.90769257 896.19305825 1341.50992963 892.20070621 1345.0625 888.0625 C1345.62904297 887.40572266 1346.19558594 886.74894531 1346.77929688 886.07226562 C1351.02348679 881.14824997 1355.25247487 876.21111613 1359.47875977 871.27172852 C1363.13579426 866.99989517 1366.81378841 862.746669 1370.5 858.5 C1376.69725512 851.35938391 1382.85389754 844.18465178 1389 837 C1395.68901674 829.18069397 1402.39748756 821.37934454 1409.14208984 813.60791016 C1414.29161749 807.67111522 1419.40700234 801.70546545 1424.51611328 795.73388672 C1427.50925416 792.23647202 1430.5062223 788.74233609 1433.50244141 785.24755859 C1435.99114291 782.34447817 1438.47897552 779.4406633 1440.96484375 776.53515625 C1446.66727831 769.87231166 1452.39385689 763.23128295 1458.14208984 756.60791016 C1463.79007108 750.09645732 1469.39681312 743.54999602 1475 737 C1481.68901674 729.18069397 1488.39748756 721.37934454 1495.14208984 713.60791016 C1500.79007108 707.09645732 1506.39681312 700.54999602 1512 694 C1518.68901674 686.18069397 1525.39748756 678.37934454 1532.14208984 670.60791016 C1537.79007108 664.09645732 1543.39681312 657.54999602 1549 651 C1555.68901674 643.18069397 1562.39748756 635.37934454 1569.14208984 627.60791016 C1574.79007108 621.09645732 1580.39681312 614.54999602 1586 608 C1592.68901674 600.18069397 1599.39748756 592.37934454 1606.14208984 584.60791016 C1611.79007108 578.09645732 1617.39681312 571.54999602 1623 565 C1629.68901674 557.18069397 1636.39748756 549.37934454 1643.14208984 541.60791016 C1648.29161749 535.67111522 1653.40700234 529.70546545 1658.51611328 523.73388672 C1661.50925416 520.23647202 1664.5062223 516.74233609 1667.50244141 513.24755859 C1669.99114291 510.34447817 1672.47897552 507.4406633 1674.96484375 504.53515625 C1680.66727831 497.87231166 1686.39385689 491.23128295 1692.14208984 484.60791016 C1697.79007108 478.09645732 1703.39681312 471.54999602 1709 465 C1715.68901674 457.18069397 1722.39748756 449.37934454 1729.14208984 441.60791016 C1734.79007108 435.09645732 1740.39681312 428.54999602 1746 422 C1752.68901674 414.18069397 1759.39748756 406.37934454 1766.14208984 398.60791016 C1771.79007108 392.09645732 1777.39681312 385.54999602 1783 379 C1789.68901674 371.18069397 1796.39748756 363.37934454 1803.14208984 355.60791016 C1808.79007108 349.09645732 1814.39681312 342.54999602 1820 336 C1826.68901674 328.18069397 1833.39748756 320.37934454 1840.14208984 312.60791016 C1845.29161749 306.67111522 1850.40700234 300.70546545 1855.51611328 294.73388672 C1858.50925416 291.23647202 1861.5062223 287.74233609 1864.50244141 284.24755859 C1866.99114291 281.34447817 1869.47897552 278.4406633 1871.96484375 275.53515625 C1877.66727831 268.87231166 1883.39385689 262.23128295 1889.14208984 255.60791016 C1894.79007108 249.09645732 1900.39681312 242.54999602 1906 236 C1912.68901674 228.18069397 1919.39748756 220.37934454 1926.14208984 212.60791016 C1931.79007108 206.09645732 1937.39681312 199.54999602 1943 193 C1949.68901674 185.18069397 1956.39748756 177.37934454 1963.14208984 169.60791016 C1968.79007108 163.09645732 1974.39681312 156.54999602 1980 150 C1986.68901674 142.18069397 1993.39748756 134.37934454 2000.14208984 126.60791016 C2005.79007108 120.09645732 2011.39681312 113.54999602 2017 107 C2023.68901674 99.18069397 2030.39748756 91.37934454 2037.14208984 83.60791016 C2042.79007108 77.09645732 2048.39681312 70.54999602 2054 64 C2060.68901674 56.18069397 2067.39748756 48.37934454 2074.14208984 40.60791016 C2079.28276831 34.68131728 2084.38942568 28.72597438 2089.48974609 22.76464844 C2092.11629844 19.6956668 2094.74583447 16.6292429 2097.375 13.5625 C2098.32032568 12.45964672 2099.26563863 11.35678252 2100.2109375 10.25390625 C2100.64577355 9.75875773 2101.08060961 9.2636092 2101.52862251 8.75345618 C2103.01906729 7.02874272 2103.01906729 7.02874272 2104.27521908 5.1805796 C2107.79893564 0.39556099 2107.79893564 0.39556099 2110.94696403 -0.64121711 C2113.26051523 -0.88167799 2115.48240776 -0.90022537 2117.80783081 -0.84178162 C2118.68275401 -0.84776259 2119.55767721 -0.85374356 2120.45911324 -0.85990578 C2123.38506517 -0.87141838 2126.30819467 -0.83297236 2129.23388672 -0.79467773 C2131.33326654 -0.79270284 2133.43265119 -0.79381229 2135.5320282 -0.79777527 C2141.22819589 -0.79978421 2146.92333235 -0.75862141 2152.61926031 -0.70975757 C2158.57295349 -0.66600682 2164.52667015 -0.66188709 2170.48049927 -0.65357971 C2181.75342992 -0.63182046 2193.02588554 -0.57437345 2204.29860699 -0.50413328 C2217.13277577 -0.42589921 2229.96696721 -0.38740558 2242.80131507 -0.35226524 C2269.20114011 -0.27909159 2295.60054344 -0.15596193 2322 0 C2321.06402612 1.25996575 2320.12635232 2.51866879 2319.18798828 3.77685547 C2318.66600861 4.47793427 2318.14402893 5.17901306 2317.60623169 5.90133667 C2315.16231624 9.09449726 2312.53159631 12.10851995 2309.875 15.125 C2308.72620437 16.43979133 2307.57777503 17.7549028 2306.4296875 19.0703125 C2305.85573242 19.72676758 2305.28177734 20.38322266 2304.69042969 21.05957031 C2302.1081893 24.02370182 2299.55365553 27.01124576 2297 30 C2292.85174513 34.84944552 2288.68325418 39.68071727 2284.5 44.5 C2278.80137055 51.06608843 2273.13594982 57.65992677 2267.48388672 64.26611328 C2264.49074584 67.76352798 2261.4937777 71.25766391 2258.49755859 74.75244141 C2256.00885709 77.65552183 2253.52102448 80.5593367 2251.03515625 83.46484375 C2245.33272169 90.12768834 2239.60614311 96.76871705 2233.85791016 103.39208984 C2228.20992892 109.90354268 2222.60318688 116.45000398 2217 123 C2210.31098326 130.81930603 2203.60251244 138.62065546 2196.85791016 146.39208984 C2191.20992892 152.90354268 2185.60318688 159.45000398 2180 166 C2173.31098326 173.81930603 2166.60251244 181.62065546 2159.85791016 189.39208984 C2154.20992892 195.90354268 2148.60318688 202.45000398 2143 209 C2136.31098326 216.81930603 2129.60251244 224.62065546 2122.85791016 232.39208984 C2117.20992892 238.90354268 2111.60318688 245.45000398 2106 252 C2099.31098326 259.81930603 2092.60251244 267.62065546 2085.85791016 275.39208984 C2080.20992892 281.90354268 2074.60318688 288.45000398 2069 295 C2062.31098326 302.81930603 2055.60251244 310.62065546 2048.85791016 318.39208984 C2043.70838251 324.32888478 2038.59299766 330.29453455 2033.48388672 336.26611328 C2030.49074584 339.76352798 2027.4937777 343.25766391 2024.49755859 346.75244141 C2022.00885709 349.65552183 2019.52102448 352.5593367 2017.03515625 355.46484375 C2011.33272169 362.12768834 2005.60614311 368.76871705 1999.85791016 375.39208984 C1994.20992892 381.90354268 1988.60318688 388.45000398 1983 395 C1976.31098326 402.81930603 1969.60251244 410.62065546 1962.85791016 418.39208984 C1957.20992892 424.90354268 1951.60318688 431.45000398 1946 438 C1939.31098326 445.81930603 1932.60251244 453.62065546 1925.85791016 461.39208984 C1920.20992892 467.90354268 1914.60318688 474.45000398 1909 481 C1902.31098326 488.81930603 1895.60251244 496.62065546 1888.85791016 504.39208984 C1883.20992892 510.90354268 1877.60318688 517.45000398 1872 524 C1865.31098326 531.81930603 1858.60251244 539.62065546 1851.85791016 547.39208984 C1846.70838251 553.32888478 1841.59299766 559.29453455 1836.48388672 565.26611328 C1833.49074584 568.76352798 1830.4937777 572.25766391 1827.49755859 575.75244141 C1825.00885709 578.65552183 1822.52102448 581.5593367 1820.03515625 584.46484375 C1814.33272169 591.12768834 1808.60614311 597.76871705 1802.85791016 604.39208984 C1797.20992892 610.90354268 1791.60318688 617.45000398 1786 624 C1779.31098326 631.81930603 1772.60251244 639.62065546 1765.85791016 647.39208984 C1760.20992892 653.90354268 1754.60318688 660.45000398 1749 667 C1742.31098326 674.81930603 1735.60251244 682.62065546 1728.85791016 690.39208984 C1723.20992892 696.90354268 1717.60318688 703.45000398 1712 710 C1705.31098326 717.81930603 1698.60251244 725.62065546 1691.85791016 733.39208984 C1686.20992892 739.90354268 1680.60318688 746.45000398 1675 753 C1668.31098326 760.81930603 1661.60251244 768.62065546 1654.85791016 776.39208984 C1649.20992892 782.90354268 1643.60318688 789.45000398 1638 796 C1631.31098326 803.81930603 1624.60251244 811.62065546 1617.85791016 819.39208984 C1612.70838251 825.32888478 1607.59299766 831.29453455 1602.48388672 837.26611328 C1599.49074584 840.76352798 1596.4937777 844.25766391 1593.49755859 847.75244141 C1591.00885709 850.65552183 1588.52102448 853.5593367 1586.03515625 856.46484375 C1580.33272169 863.12768834 1574.60614311 869.76871705 1568.85791016 876.39208984 C1563.20992892 882.90354268 1557.60318688 889.45000398 1552 896 C1545.31098326 903.81930603 1538.60251244 911.62065546 1531.85791016 919.39208984 C1526.20992892 925.90354268 1520.60318688 932.45000398 1515 939 C1508.31098326 946.81930603 1501.60251244 954.62065546 1494.85791016 962.39208984 C1489.20992892 968.90354268 1483.60318688 975.45000398 1478 982 C1471.85389653 989.18465297 1465.69711679 996.35926275 1459.5 1003.5 C1449.58276979 1014.92910214 1439.75881938 1026.43541483 1430 1038 C1433.11690462 1043.85113476 1436.48057879 1049.32644362 1440.375 1054.6875 C1445.19515743 1061.4189811 1449.90960026 1068.2143345 1454.5625 1075.0625 C1455.19945801 1075.99940674 1455.83641602 1076.93631348 1456.49267578 1077.90161133 C1457.74475429 1079.74340435 1458.99671063 1081.58528043 1460.24853516 1083.42724609 C1462.73801927 1087.08408797 1465.24168842 1090.73105524 1467.75 1094.375 C1468.18836182 1095.01187744 1468.62672363 1095.64875488 1469.07836914 1096.30493164 C1469.94861209 1097.56892917 1470.81897217 1098.83284606 1471.68945312 1100.09667969 C1473.96155061 1103.39646956 1476.23057913 1106.69836901 1478.5 1110 C1479.41665286 1111.33334282 1480.33331951 1112.66667617 1481.25 1114 C1497.75 1138 1514.25 1162 1530.75 1186 C1531.20358887 1186.6597583 1531.65717773 1187.3195166 1532.12451172 1187.99926758 C1533.04283361 1189.33502333 1533.9611278 1190.67079812 1534.87939453 1192.0065918 C1537.14551157 1195.30301745 1539.41208059 1198.59913027 1541.6796875 1201.89453125 C1547.18518464 1209.89670733 1552.67634388 1217.90854995 1558.15917969 1225.92626953 C1562.98034499 1232.97489904 1567.81630573 1240.013269 1572.65722656 1247.04833984 C1574.93908519 1250.36491764 1577.21945755 1253.6825171 1579.5 1257 C1580.41665976 1258.33333808 1581.33332642 1259.66667142 1582.25 1261 C1602.41666667 1290.33333333 1622.58333333 1319.66666667 1642.75 1349 C1643.20358887 1349.6597583 1643.65717773 1350.3195166 1644.12451172 1350.99926758 C1645.04283361 1352.33502333 1645.9611278 1353.67079812 1646.87939453 1355.0065918 C1649.14551157 1358.30301745 1651.41208059 1361.59913027 1653.6796875 1364.89453125 C1659.18518464 1372.89670733 1664.67634388 1380.90854995 1670.15917969 1388.92626953 C1674.98034499 1395.97489904 1679.81630573 1403.013269 1684.65722656 1410.04833984 C1686.93908519 1413.36491764 1689.21945755 1416.6825171 1691.5 1420 C1692.41665976 1421.33333808 1693.33332642 1422.66667142 1694.25 1424 C1714.41666667 1453.33333333 1734.58333333 1482.66666667 1754.75 1512 C1755.20358887 1512.6597583 1755.65717773 1513.3195166 1756.12451172 1513.99926758 C1757.04283361 1515.33502333 1757.9611278 1516.67079812 1758.87939453 1518.0065918 C1761.14551157 1521.30301745 1763.41208059 1524.59913027 1765.6796875 1527.89453125 C1771.18518464 1535.89670733 1776.67634388 1543.90854995 1782.15917969 1551.92626953 C1786.98034499 1558.97489904 1791.81630573 1566.013269 1796.65722656 1573.04833984 C1798.93908519 1576.36491764 1801.21945755 1579.6825171 1803.5 1583 C1804.41665976 1584.33333808 1805.33332642 1585.66667142 1806.25 1587 C1830.08333333 1621.66666667 1853.91666667 1656.33333333 1877.75 1691 C1878.20358887 1691.6597583 1878.65717773 1692.3195166 1879.12451172 1692.99926758 C1880.04283361 1694.33502333 1880.9611278 1695.67079812 1881.87939453 1697.0065918 C1884.14551157 1700.30301745 1886.41208059 1703.59913027 1888.6796875 1706.89453125 C1894.18518464 1714.89670733 1899.67634388 1722.90854995 1905.15917969 1730.92626953 C1909.98034499 1737.97489904 1914.81630573 1745.013269 1919.65722656 1752.04833984 C1921.93908519 1755.36491764 1924.21945755 1758.6825171 1926.5 1762 C1927.41665976 1763.33333808 1928.33332642 1764.66667142 1929.25 1766 C1949.41666667 1795.33333333 1969.58333333 1824.66666667 1989.75 1854 C1990.20358887 1854.6597583 1990.65717773 1855.3195166 1991.12451172 1855.99926758 C1992.04283361 1857.33502333 1992.9611278 1858.67079812 1993.87939453 1860.0065918 C1996.14551157 1863.30301745 1998.41208059 1866.59913027 2000.6796875 1869.89453125 C2006.18518464 1877.89670733 2011.67634388 1885.90854995 2017.15917969 1893.92626953 C2021.98034499 1900.97489904 2026.81630573 1908.013269 2031.65722656 1915.04833984 C2033.93908519 1918.36491764 2036.21945755 1921.6825171 2038.5 1925 C2039.41665976 1926.33333808 2040.33332642 1927.66667142 2041.25 1929 C2077 1981 2077 1981 2112.75 2033 C2113.20358887 2033.6597583 2113.65717773 2034.3195166 2114.12451172 2034.99926758 C2115.04283361 2036.33502333 2115.9611278 2037.67079812 2116.87939453 2039.0065918 C2119.14551157 2042.30301745 2121.41208059 2045.59913027 2123.6796875 2048.89453125 C2129.18518464 2056.89670733 2134.67634388 2064.90854995 2140.15917969 2072.92626953 C2144.98034499 2079.97489904 2149.81630573 2087.013269 2154.65722656 2094.04833984 C2156.93908519 2097.36491764 2159.21945755 2100.6825171 2161.5 2104 C2162.41665976 2105.33333808 2163.33332642 2106.66667142 2164.25 2108 C2184.41666667 2137.33333333 2204.58333333 2166.66666667 2224.75 2196 C2225.20358887 2196.6597583 2225.65717773 2197.3195166 2226.12451172 2197.99926758 C2227.04283361 2199.33502333 2227.9611278 2200.67079812 2228.87939453 2202.0065918 C2231.14551157 2205.30301745 2233.41208059 2208.59913027 2235.6796875 2211.89453125 C2241.18518464 2219.89670733 2246.67634388 2227.90854995 2252.15917969 2235.92626953 C2256.98034499 2242.97489904 2261.81630573 2250.013269 2266.65722656 2257.04833984 C2268.93908519 2260.36491764 2271.21945755 2263.6825171 2273.5 2267 C2274.41665976 2268.33333808 2275.33332642 2269.66667142 2276.25 2271 C2296.41666667 2300.33333333 2316.58333333 2329.66666667 2336.75 2359 C2337.20358887 2359.6597583 2337.65717773 2360.3195166 2338.12451172 2360.99926758 C2339.04283361 2362.33502333 2339.9611278 2363.67079812 2340.87939453 2365.0065918 C2343.14551157 2368.30301745 2345.41208059 2371.59913027 2347.6796875 2374.89453125 C2353.18518464 2382.89670733 2358.67634388 2390.90854995 2364.15917969 2398.92626953 C2368.97736426 2405.97054115 2373.81043256 2413.00448825 2378.6484375 2420.03515625 C2380.0372463 2422.05414708 2381.42501567 2424.07384878 2382.8125 2426.09375 C2383.27857666 2426.77203857 2383.74465332 2427.45032715 2384.22485352 2428.14916992 C2385.14774815 2429.49271784 2386.07012386 2430.83662239 2386.99194336 2432.1809082 C2389.20728162 2435.40821587 2391.43491113 2438.62552347 2393.69140625 2441.82421875 C2394.11276855 2442.42403564 2394.53413086 2443.02385254 2394.96826172 2443.6418457 C2396.11468637 2445.27149501 2397.2661587 2446.89759004 2398.41796875 2448.5234375 C2400 2451 2400 2451 2400 2453 C2331.93295653 2453.15421497 2263.86589221 2453.29731584 2195.79872131 2453.38108826 C2194.79172537 2453.38233077 2193.78472943 2453.38357328 2192.74721846 2453.38485345 C2170.86385914 2453.41178798 2148.98049798 2453.43671985 2127.09713405 2453.45958797 C2116.36594377 2453.47081425 2105.634754 2453.4824832 2094.90356445 2453.49438477 C2093.30171863 2453.49615001 2093.30171863 2453.49615001 2091.66751229 2453.49795092 C2057.03757637 2453.53632096 2022.40777239 2453.603936 1987.77791643 2453.68667499 C1952.19898415 2453.77152739 1916.62012491 2453.82695945 1881.04109315 2453.84523491 C1876.01882044 2453.8478284 1870.99654799 2453.85075914 1865.97427559 2453.85389519 C1864.49155464 2453.8548054 1864.49155464 2453.8548054 1862.97887973 2453.855734 C1847.05025513 2453.86638031 1831.12185604 2453.90815179 1815.19332349 2453.96148831 C1799.18987209 2454.01441415 1783.18664482 2454.03472684 1767.18310892 2454.0215124 C1757.66835374 2454.01465348 1748.15441727 2454.0330363 1738.63980954 2454.08717789 C1732.28865405 2454.12085748 1725.93803637 2454.12202325 1719.58684415 2454.09648632 C1715.96461829 2454.0828608 1712.34394337 2454.08362272 1708.7218821 2454.12394864 C1704.82313712 2454.16702614 1700.92663638 2454.14074694 1697.02775478 2454.10743046 C1695.89903689 2454.13107358 1694.77031899 2454.1547167 1693.60739753 2454.17907628 C1686.16545441 2454.03443421 1686.16545441 2454.03443421 1682.78013528 2451.02969211 C1680.9913728 2448.76044098 1679.46918332 2446.48503995 1678 2444 C1677.29496338 2442.99340332 1676.58992676 2441.98680664 1675.86352539 2440.94970703 C1675.28078857 2440.06138184 1674.69805176 2439.17305664 1674.09765625 2438.2578125 C1673.43443359 2437.25363281 1672.77121094 2436.24945312 1672.08789062 2435.21484375 C1671.41951172 2434.19519531 1670.75113281 2433.17554687 1670.0625 2432.125 C1665.509551 2425.19179929 1660.86486118 2418.37304661 1655.95336914 2411.68847656 C1652.76375724 2407.29852453 1649.72852563 2402.80606448 1646.6875 2398.3125 C1645.37394153 2396.37874075 1644.06013783 2394.44514805 1642.74609375 2392.51171875 C1642.10913574 2391.57376465 1641.47217773 2390.63581055 1640.81591797 2389.66943359 C1638.3059188 2385.97968757 1635.78062547 2382.30061918 1633.25 2378.625 C1632.81051025 2377.98643066 1632.37102051 2377.34786133 1631.91821289 2376.68994141 C1631.04620445 2375.42324122 1630.17405465 2374.15663833 1629.30175781 2372.89013672 C1622.46467675 2362.96277708 1615.64498892 2353.02367568 1608.84082031 2343.07373047 C1604.01965501 2336.02510096 1599.18369427 2328.986731 1594.34277344 2321.95166016 C1592.06091481 2318.63508236 1589.78054245 2315.3174829 1587.5 2312 C1586.58334024 2310.66666192 1585.66667358 2309.33332858 1584.75 2308 C1560.91666667 2273.33333333 1537.08333333 2238.66666667 1513.25 2204 C1512.79641113 2203.3402417 1512.34282227 2202.6804834 1511.87548828 2202.00073242 C1510.95716639 2200.66497667 1510.0388722 2199.32920188 1509.12060547 2197.9934082 C1506.85448843 2194.69698255 1504.58791941 2191.40086973 1502.3203125 2188.10546875 C1496.81481536 2180.10329267 1491.32365612 2172.09145005 1485.84082031 2164.07373047 C1481.01965501 2157.02510096 1476.18369427 2149.986731 1471.34277344 2142.95166016 C1469.06091481 2139.63508236 1466.78054245 2136.3174829 1464.5 2133 C1463.58334024 2131.66666192 1462.66667358 2130.33332858 1461.75 2129 C1441.58333333 2099.66666667 1421.41666667 2070.33333333 1401.25 2041 C1400.79641113 2040.3402417 1400.34282227 2039.6804834 1399.87548828 2039.00073242 C1398.95716639 2037.66497667 1398.0388722 2036.32920188 1397.12060547 2034.9934082 C1394.85448843 2031.69698255 1392.58791941 2028.40086973 1390.3203125 2025.10546875 C1384.81481536 2017.10329267 1379.32365612 2009.09145005 1373.84082031 2001.07373047 C1369.01965501 1994.02510096 1364.18369427 1986.986731 1359.34277344 1979.95166016 C1357.06091481 1976.63508236 1354.78054245 1973.3174829 1352.5 1970 C1351.58334024 1968.66666192 1350.66667358 1967.33332858 1349.75 1966 C1329.58333333 1936.66666667 1309.41666667 1907.33333333 1289.25 1878 C1288.79641113 1877.3402417 1288.34282227 1876.6804834 1287.87548828 1876.00073242 C1286.95716639 1874.66497667 1286.0388722 1873.32920188 1285.12060547 1871.9934082 C1282.85448843 1868.69698255 1280.58791941 1865.40086973 1278.3203125 1862.10546875 C1272.81481536 1854.10329267 1267.32365612 1846.09145005 1261.84082031 1838.07373047 C1257.01965501 1831.02510096 1252.18369427 1823.986731 1247.34277344 1816.95166016 C1245.06091481 1813.63508236 1242.78054245 1810.3174829 1240.5 1807 C1239.58334024 1805.66666192 1238.66667358 1804.33332858 1237.75 1803 C1213.91666667 1768.33333333 1190.08333333 1733.66666667 1166.25 1699 C1165.79641113 1698.3402417 1165.34282227 1697.6804834 1164.87548828 1697.00073242 C1163.95716639 1695.66497667 1163.0388722 1694.32920188 1162.12060547 1692.9934082 C1159.85448843 1689.69698255 1157.58791941 1686.40086973 1155.3203125 1683.10546875 C1149.81481536 1675.10329267 1144.32365612 1667.09145005 1138.84082031 1659.07373047 C1134.01965501 1652.02510096 1129.18369427 1644.986731 1124.34277344 1637.95166016 C1122.06091481 1634.63508236 1119.78054245 1631.3174829 1117.5 1628 C1116.58334024 1626.66666192 1115.66667358 1625.33332858 1114.75 1624 C1054.24999999 1535.99999999 1054.24999999 1535.99999999 1052.87304688 1533.99707031 C1051.9630013 1532.6734265 1051.05284635 1531.34985789 1050.14257812 1530.02636719 C1047.7486728 1526.5454159 1045.35708774 1523.06289913 1042.96875 1519.578125 C1042.47181641 1518.85367187 1041.97488281 1518.12921875 1041.46289062 1517.3828125 C1040.5129679 1515.99787843 1039.5637103 1514.61248782 1038.61523438 1513.2265625 C1036.85416505 1510.66020661 1035.10021544 1508.128725 1033.1875 1505.671875 C1032 1504 1032 1504 1032 1502 C1028.3634792 1504.73374815 1025.56054579 1507.5545659 1022.75 1511.125 C1019.76360694 1514.85304697 1016.722137 1518.47367524 1013.5 1522 C1010.40444804 1525.39598682 1007.44848793 1528.86171531 1004.5625 1532.4375 C1000.70291397 1537.20996203 996.62800009 1541.73109109 992.47265625 1546.24609375 C989.25290481 1549.83207284 986.24094824 1553.56701492 983.21484375 1557.31640625 C980.33519113 1560.80550916 977.29306124 1564.12996921 974.24609375 1567.47265625 C971.93812402 1570.06962393 969.74444137 1572.73404013 967.5625 1575.4375 C963.70291397 1580.20996203 959.62800009 1584.73109109 955.47265625 1589.24609375 C952.25290481 1592.83207284 949.24094824 1596.56701492 946.21484375 1600.31640625 C943.33519113 1603.80550916 940.29306124 1607.12996921 937.24609375 1610.47265625 C934.93812402 1613.06962393 932.74444137 1615.73404013 930.5625 1618.4375 C926.70291397 1623.20996203 922.62800009 1627.73109109 918.47265625 1632.24609375 C915.25290481 1635.83207284 912.24094824 1639.56701492 909.21484375 1643.31640625 C906.33519113 1646.80550916 903.29306124 1650.12996921 900.24609375 1653.47265625 C897.93812402 1656.06962393 895.74444137 1658.73404013 893.5625 1661.4375 C889.70291397 1666.20996203 885.62800009 1670.73109109 881.47265625 1675.24609375 C878.25290481 1678.83207284 875.24094824 1682.56701492 872.21484375 1686.31640625 C869.33519113 1689.80550916 866.29306124 1693.12996921 863.24609375 1696.47265625 C860.93812402 1699.06962393 858.74444137 1701.73404013 856.5625 1704.4375 C852.70291397 1709.20996203 848.62800009 1713.73109109 844.47265625 1718.24609375 C841.25290481 1721.83207284 838.24094824 1725.56701492 835.21484375 1729.31640625 C833.04367173 1731.94708557 830.79758643 1734.47942424 828.5 1737 C825.38541332 1740.41739372 822.4081338 1743.9052235 819.5 1747.5 C815.88850866 1751.96420457 812.11339306 1756.23002114 808.24609375 1760.47265625 C805.93812402 1763.06962393 803.74444137 1765.73404013 801.5625 1768.4375 C797.70291397 1773.20996203 793.62800009 1777.73109109 789.47265625 1782.24609375 C786.25290481 1785.83207284 783.24094824 1789.56701492 780.21484375 1793.31640625 C777.33519113 1796.80550916 774.29306124 1800.12996921 771.24609375 1803.47265625 C768.93812402 1806.06962393 766.74444137 1808.73404013 764.5625 1811.4375 C760.70291397 1816.20996203 756.62800009 1820.73109109 752.47265625 1825.24609375 C749.25290481 1828.83207284 746.24094824 1832.56701492 743.21484375 1836.31640625 C740.33519113 1839.80550916 737.29306124 1843.12996921 734.24609375 1846.47265625 C731.93812402 1849.06962393 729.74444137 1851.73404013 727.5625 1854.4375 C723.70291397 1859.20996203 719.62800009 1863.73109109 715.47265625 1868.24609375 C712.25290481 1871.83207284 709.24094824 1875.56701492 706.21484375 1879.31640625 C703.33519113 1882.80550916 700.29306124 1886.12996921 697.24609375 1889.47265625 C694.93812402 1892.06962393 692.74444137 1894.73404013 690.5625 1897.4375 C686.70291397 1902.20996203 682.62800009 1906.73109109 678.47265625 1911.24609375 C675.25290481 1914.83207284 672.24094824 1918.56701492 669.21484375 1922.31640625 C666.33519113 1925.80550916 663.29306124 1929.12996921 660.24609375 1932.47265625 C657.93812402 1935.06962393 655.74444137 1937.73404013 653.5625 1940.4375 C649.70291397 1945.20996203 645.62800009 1949.73109109 641.47265625 1954.24609375 C638.25290481 1957.83207284 635.24094824 1961.56701492 632.21484375 1965.31640625 C629.33519113 1968.80550916 626.29306124 1972.12996921 623.24609375 1975.47265625 C620.93812402 1978.06962393 618.74444137 1980.73404013 616.5625 1983.4375 C612.70291397 1988.20996203 608.62800009 1992.73109109 604.47265625 1997.24609375 C601.25290481 2000.83207284 598.24094824 2004.56701492 595.21484375 2008.31640625 C592.33519113 2011.80550916 589.29306124 2015.12996921 586.24609375 2018.47265625 C583.93812402 2021.06962393 581.74444137 2023.73404013 579.5625 2026.4375 C575.70291397 2031.20996203 571.62800009 2035.73109109 567.47265625 2040.24609375 C564.25290481 2043.83207284 561.24094824 2047.56701492 558.21484375 2051.31640625 C555.33519113 2054.80550916 552.29306124 2058.12996921 549.24609375 2061.47265625 C546.93812402 2064.06962393 544.74444137 2066.73404013 542.5625 2069.4375 C538.70291397 2074.20996203 534.62800009 2078.73109109 530.47265625 2083.24609375 C527.25290481 2086.83207284 524.24094824 2090.56701492 521.21484375 2094.31640625 C519.04367173 2096.94708557 516.79758643 2099.47942424 514.5 2102 C511.38541332 2105.41739372 508.4081338 2108.9052235 505.5 2112.5 C501.88850866 2116.96420457 498.11339306 2121.23002114 494.24609375 2125.47265625 C491.93812402 2128.06962393 489.74444137 2130.73404013 487.5625 2133.4375 C483.70291397 2138.20996203 479.62800009 2142.73109109 475.47265625 2147.24609375 C472.25290481 2150.83207284 469.24094824 2154.56701492 466.21484375 2158.31640625 C463.33519113 2161.80550916 460.29306124 2165.12996921 457.24609375 2168.47265625 C454.93812402 2171.06962393 452.74444137 2173.73404013 450.5625 2176.4375 C446.70291397 2181.20996203 442.62800009 2185.73109109 438.47265625 2190.24609375 C435.25290481 2193.83207284 432.24094824 2197.56701492 429.21484375 2201.31640625 C426.33519113 2204.80550916 423.29306124 2208.12996921 420.24609375 2211.47265625 C417.93812402 2214.06962393 415.74444137 2216.73404013 413.5625 2219.4375 C409.70291397 2224.20996203 405.62800009 2228.73109109 401.47265625 2233.24609375 C398.25290481 2236.83207284 395.24094824 2240.56701492 392.21484375 2244.31640625 C389.33519113 2247.80550916 386.29306124 2251.12996921 383.24609375 2254.47265625 C380.93812402 2257.06962393 378.74444137 2259.73404013 376.5625 2262.4375 C372.70291397 2267.20996203 368.62800009 2271.73109109 364.47265625 2276.24609375 C361.25290481 2279.83207284 358.24094824 2283.56701492 355.21484375 2287.31640625 C352.33519113 2290.80550916 349.29306124 2294.12996921 346.24609375 2297.47265625 C343.93812402 2300.06962393 341.74444137 2302.73404013 339.5625 2305.4375 C335.70291397 2310.20996203 331.62800009 2314.73109109 327.47265625 2319.24609375 C324.25290481 2322.83207284 321.24094824 2326.56701492 318.21484375 2330.31640625 C315.33519113 2333.80550916 312.29306124 2337.12996921 309.24609375 2340.47265625 C306.93812402 2343.06962393 304.74444137 2345.73404013 302.5625 2348.4375 C298.70291397 2353.20996203 294.62800009 2357.73109109 290.47265625 2362.24609375 C287.25290481 2365.83207284 284.24094824 2369.56701492 281.21484375 2373.31640625 C278.33519113 2376.80550916 275.29306124 2380.12996921 272.24609375 2383.47265625 C269.93812402 2386.06962393 267.74444137 2388.73404013 265.5625 2391.4375 C261.70291397 2396.20996203 257.62800009 2400.73109109 253.47265625 2405.24609375 C250.25290481 2408.83207284 247.24094824 2412.56701492 244.21484375 2416.31640625 C241.33519113 2419.80550916 238.29306124 2423.12996921 235.24609375 2426.47265625 C232.93812402 2429.06962393 230.74444137 2431.73404013 228.5625 2434.4375 C224.54861716 2439.40706923 220.31595347 2444.10922906 215.96875 2448.78515625 C213.97328212 2450.83679121 213.97328212 2450.83679121 213 2453 C142.71 2453 72.42 2453 0 2453 C1.81070232 2449.37859536 3.34928122 2447.34212751 6.0625 2444.4375 C9.33018473 2440.87703072 12.46479193 2437.2606708 15.5 2433.5 C19.11149134 2429.03579543 22.88660694 2424.76997886 26.75390625 2420.52734375 C29.06187598 2417.93037607 31.25555863 2415.26595987 33.4375 2412.5625 C37.29708603 2407.79003797 41.37199991 2403.26890891 45.52734375 2398.75390625 C48.74709519 2395.16792716 51.75905176 2391.43298508 54.78515625 2387.68359375 C57.66480887 2384.19449084 60.70693876 2380.87003079 63.75390625 2377.52734375 C66.06187598 2374.93037607 68.25555863 2372.26595987 70.4375 2369.5625 C74.29708603 2364.79003797 78.37199991 2360.26890891 82.52734375 2355.75390625 C85.74709519 2352.16792716 88.75905176 2348.43298508 91.78515625 2344.68359375 C94.66480887 2341.19449084 97.70693876 2337.87003079 100.75390625 2334.52734375 C103.06187598 2331.93037607 105.25555863 2329.26595987 107.4375 2326.5625 C111.29708603 2321.79003797 115.37199991 2317.26890891 119.52734375 2312.75390625 C122.74709519 2309.16792716 125.75905176 2305.43298508 128.78515625 2301.68359375 C131.66480887 2298.19449084 134.70693876 2294.87003079 137.75390625 2291.52734375 C140.06187598 2288.93037607 142.25555863 2286.26595987 144.4375 2283.5625 C148.29708603 2278.79003797 152.37199991 2274.26890891 156.52734375 2269.75390625 C159.74709519 2266.16792716 162.75905176 2262.43298508 165.78515625 2258.68359375 C168.66480887 2255.19449084 171.70693876 2251.87003079 174.75390625 2248.52734375 C177.06187598 2245.93037607 179.25555863 2243.26595987 181.4375 2240.5625 C185.29708603 2235.79003797 189.37199991 2231.26890891 193.52734375 2226.75390625 C196.74709519 2223.16792716 199.75905176 2219.43298508 202.78515625 2215.68359375 C205.66480887 2212.19449084 208.70693876 2208.87003079 211.75390625 2205.52734375 C214.06187598 2202.93037607 216.25555863 2200.26595987 218.4375 2197.5625 C222.29708603 2192.79003797 226.37199991 2188.26890891 230.52734375 2183.75390625 C233.74709519 2180.16792716 236.75905176 2176.43298508 239.78515625 2172.68359375 C242.66480887 2169.19449084 245.70693876 2165.87003079 248.75390625 2162.52734375 C251.06187598 2159.93037607 253.25555863 2157.26595987 255.4375 2154.5625 C259.29708603 2149.79003797 263.37199991 2145.26890891 267.52734375 2140.75390625 C270.74709519 2137.16792716 273.75905176 2133.43298508 276.78515625 2129.68359375 C279.66480887 2126.19449084 282.70693876 2122.87003079 285.75390625 2119.52734375 C288.06187598 2116.93037607 290.25555863 2114.26595987 292.4375 2111.5625 C296.29708603 2106.79003797 300.37199991 2102.26890891 304.52734375 2097.75390625 C307.74709519 2094.16792716 310.75905176 2090.43298508 313.78515625 2086.68359375 C316.66480887 2083.19449084 319.70693876 2079.87003079 322.75390625 2076.52734375 C325.06187598 2073.93037607 327.25555863 2071.26595987 329.4375 2068.5625 C333.29708603 2063.79003797 337.37199991 2059.26890891 341.52734375 2054.75390625 C344.74709519 2051.16792716 347.75905176 2047.43298508 350.78515625 2043.68359375 C353.66480887 2040.19449084 356.70693876 2036.87003079 359.75390625 2033.52734375 C362.06187598 2030.93037607 364.25555863 2028.26595987 366.4375 2025.5625 C370.29708603 2020.79003797 374.37199991 2016.26890891 378.52734375 2011.75390625 C381.74709519 2008.16792716 384.75905176 2004.43298508 387.78515625 2000.68359375 C390.66480887 1997.19449084 393.70693876 1993.87003079 396.75390625 1990.52734375 C399.06187598 1987.93037607 401.25555863 1985.26595987 403.4375 1982.5625 C407.29708603 1977.79003797 411.37199991 1973.26890891 415.52734375 1968.75390625 C418.74709519 1965.16792716 421.75905176 1961.43298508 424.78515625 1957.68359375 C426.95632827 1955.05291443 429.20241357 1952.52057576 431.5 1950 C434.61458668 1946.58260628 437.5918662 1943.0947765 440.5 1939.5 C444.11149134 1935.03579543 447.88660694 1930.76997886 451.75390625 1926.52734375 C454.06187598 1923.93037607 456.25555863 1921.26595987 458.4375 1918.5625 C462.29708603 1913.79003797 466.37199991 1909.26890891 470.52734375 1904.75390625 C473.74709519 1901.16792716 476.75905176 1897.43298508 479.78515625 1893.68359375 C482.66480887 1890.19449084 485.70693876 1886.87003079 488.75390625 1883.52734375 C491.06187598 1880.93037607 493.25555863 1878.26595987 495.4375 1875.5625 C499.29708603 1870.79003797 503.37199991 1866.26890891 507.52734375 1861.75390625 C510.74709519 1858.16792716 513.75905176 1854.43298508 516.78515625 1850.68359375 C519.66480887 1847.19449084 522.70693876 1843.87003079 525.75390625 1840.52734375 C528.06187598 1837.93037607 530.25555863 1835.26595987 532.4375 1832.5625 C536.29708603 1827.79003797 540.37199991 1823.26890891 544.52734375 1818.75390625 C547.74709519 1815.16792716 550.75905176 1811.43298508 553.78515625 1807.68359375 C556.66480887 1804.19449084 559.70693876 1800.87003079 562.75390625 1797.52734375 C565.06187598 1794.93037607 567.25555863 1792.26595987 569.4375 1789.5625 C573.29708603 1784.79003797 577.37199991 1780.26890891 581.52734375 1775.75390625 C584.74709519 1772.16792716 587.75905176 1768.43298508 590.78515625 1764.68359375 C593.66480887 1761.19449084 596.70693876 1757.87003079 599.75390625 1754.52734375 C602.06187598 1751.93037607 604.25555863 1749.26595987 606.4375 1746.5625 C610.29708603 1741.79003797 614.37199991 1737.26890891 618.52734375 1732.75390625 C621.74709519 1729.16792716 624.75905176 1725.43298508 627.78515625 1721.68359375 C630.66480887 1718.19449084 633.70693876 1714.87003079 636.75390625 1711.52734375 C639.06187598 1708.93037607 641.25555863 1706.26595987 643.4375 1703.5625 C647.29708603 1698.79003797 651.37199991 1694.26890891 655.52734375 1689.75390625 C658.74709519 1686.16792716 661.75905176 1682.43298508 664.78515625 1678.68359375 C667.66480887 1675.19449084 670.70693876 1671.87003079 673.75390625 1668.52734375 C676.06187598 1665.93037607 678.25555863 1663.26595987 680.4375 1660.5625 C684.29708603 1655.79003797 688.37199991 1651.26890891 692.52734375 1646.75390625 C695.74709519 1643.16792716 698.75905176 1639.43298508 701.78515625 1635.68359375 C704.66480887 1632.19449084 707.70693876 1628.87003079 710.75390625 1625.52734375 C713.06187598 1622.93037607 715.25555863 1620.26595987 717.4375 1617.5625 C721.29708603 1612.79003797 725.37199991 1608.26890891 729.52734375 1603.75390625 C732.74709519 1600.16792716 735.75905176 1596.43298508 738.78515625 1592.68359375 C741.66480887 1589.19449084 744.70693876 1585.87003079 747.75390625 1582.52734375 C750.06187598 1579.93037607 752.25555863 1577.26595987 754.4375 1574.5625 C758.29708603 1569.79003797 762.37199991 1565.26890891 766.52734375 1560.75390625 C769.74709519 1557.16792716 772.75905176 1553.43298508 775.78515625 1549.68359375 C778.66480887 1546.19449084 781.70693876 1542.87003079 784.75390625 1539.52734375 C787.06187598 1536.93037607 789.25555863 1534.26595987 791.4375 1531.5625 C795.29708603 1526.79003797 799.37199991 1522.26890891 803.52734375 1517.75390625 C806.74709519 1514.16792716 809.75905176 1510.43298508 812.78515625 1506.68359375 C815.66480887 1503.19449084 818.70693876 1499.87003079 821.75390625 1496.52734375 C824.06187598 1493.93037607 826.25555863 1491.26595987 828.4375 1488.5625 C832.29708603 1483.79003797 836.37199991 1479.26890891 840.52734375 1474.75390625 C843.74709519 1471.16792716 846.75905176 1467.43298508 849.78515625 1463.68359375 C851.95632827 1461.05291443 854.20241357 1458.52057576 856.5 1456 C859.61458668 1452.58260628 862.5918662 1449.0947765 865.5 1445.5 C869.11149134 1441.03579543 872.88660694 1436.76997886 876.75390625 1432.52734375 C879.06187598 1429.93037607 881.25555863 1427.26595987 883.4375 1424.5625 C887.29708603 1419.79003797 891.37199991 1415.26890891 895.52734375 1410.75390625 C898.74709519 1407.16792716 901.75905176 1403.43298508 904.78515625 1399.68359375 C907.66480887 1396.19449084 910.70693876 1392.87003079 913.75390625 1389.52734375 C916.84117542 1386.05349479 919.73615704 1382.43638575 922.64453125 1378.8125 C924.33006758 1376.79991931 926.01573054 1374.89373062 927.82421875 1373 C928.29093994 1372.50814209 928.75766113 1372.01628418 929.23852539 1371.50952148 C930.55744739 1370.1330026 931.89162603 1368.77115004 933.2265625 1367.41015625 C935.25892459 1365.23136575 935.25892459 1365.23136575 934.74316406 1363.05737305 C933.49159306 1359.59252782 931.24136585 1356.73313317 929.125 1353.75 C928.11443814 1352.30348684 927.10402547 1350.85686944 926.09375 1349.41015625 C925.31837891 1348.30631592 925.31837891 1348.30631592 924.52734375 1347.18017578 C922.20445973 1343.86442222 919.91490687 1340.52607153 917.625 1337.1875 C916.71096484 1335.85805412 915.79690178 1334.52862742 914.8828125 1333.19921875 C911.19422341 1327.82947935 907.51814086 1322.45118951 903.84082031 1317.07373047 C899.01965501 1310.02510096 894.18369427 1302.986731 889.34277344 1295.95166016 C887.06091481 1292.63508236 884.78054245 1289.3174829 882.5 1286 C881.58334024 1284.66666192 880.66667358 1283.33332858 879.75 1282 C859.58333333 1252.66666667 839.41666667 1223.33333333 819.25 1194 C818.5696167 1193.01036255 818.5696167 1193.01036255 817.87548828 1192.00073242 C816.95716639 1190.66497667 816.0388722 1189.32920188 815.12060547 1187.9934082 C812.85448843 1184.69698255 810.58791941 1181.40086973 808.3203125 1178.10546875 C802.81481536 1170.10329267 797.32365612 1162.09145005 791.84082031 1154.07373047 C787.01965501 1147.02510096 782.18369427 1139.986731 777.34277344 1132.95166016 C775.06091481 1129.63508236 772.78054245 1126.3174829 770.5 1123 C769.58334024 1121.66666192 768.66667358 1120.33332858 767.75 1119 C747.58333333 1089.66666667 727.41666667 1060.33333333 707.25 1031 C706.5696167 1030.01036255 706.5696167 1030.01036255 705.87548828 1029.00073242 C704.95716639 1027.66497667 704.0388722 1026.32920188 703.12060547 1024.9934082 C700.85448843 1021.69698255 698.58791941 1018.40086973 696.3203125 1015.10546875 C690.81481536 1007.10329267 685.32365612 999.09145005 679.84082031 991.07373047 C675.01965501 984.02510096 670.18369427 976.986731 665.34277344 969.95166016 C663.06091481 966.63508236 660.78054245 963.3174829 658.5 960 C657.58334024 958.66666192 656.66667358 957.33332858 655.75 956 C625.5 912 625.5 912 595.25 868 C594.5696167 867.01036255 594.5696167 867.01036255 593.87548828 866.00073242 C592.95716639 864.66497667 592.0388722 863.32920188 591.12060547 861.9934082 C588.85448843 858.69698255 586.58791941 855.40086973 584.3203125 852.10546875 C578.81481536 844.10329267 573.32365612 836.09145005 567.84082031 828.07373047 C563.01965501 821.02510096 558.18369427 813.986731 553.34277344 806.95166016 C551.06091481 803.63508236 548.78054245 800.3174829 546.5 797 C545.58334024 795.66666192 544.66667358 794.33332858 543.75 793 C523.58333333 763.66666667 503.41666667 734.33333333 483.25 705 C482.79641113 704.3402417 482.34282227 703.6804834 481.87548828 703.00073242 C480.95716639 701.66497667 480.0388722 700.32920188 479.12060547 698.9934082 C476.85448843 695.69698255 474.58791941 692.40086973 472.3203125 689.10546875 C466.81481536 681.10329267 461.32365612 673.09145005 455.84082031 665.07373047 C451.01965501 658.02510096 446.18369427 650.986731 441.34277344 643.95166016 C439.06091481 640.63508236 436.78054245 637.3174829 434.5 634 C433.58334024 632.66666192 432.66667358 631.33332858 431.75 630 C411.58333333 600.66666667 391.41666667 571.33333333 371.25 542 C370.79641113 541.3402417 370.34282227 540.6804834 369.87548828 540.00073242 C368.95716639 538.66497667 368.0388722 537.32920188 367.12060547 535.9934082 C364.85448843 532.69698255 362.58791941 529.40086973 360.3203125 526.10546875 C354.81481536 518.10329267 349.32365612 510.09145005 343.84082031 502.07373047 C339.01965501 495.02510096 334.18369427 487.986731 329.34277344 480.95166016 C327.06091481 477.63508236 324.78054245 474.3174829 322.5 471 C321.58334024 469.66666192 320.66667358 468.33332858 319.75 467 C299.58333333 437.66666667 279.41666667 408.33333333 259.25 379 C258.79641113 378.3402417 258.34282227 377.6804834 257.87548828 377.00073242 C256.95716639 375.66497667 256.0388722 374.32920188 255.12060547 372.9934082 C252.85448843 369.69698255 250.58791941 366.40086973 248.3203125 363.10546875 C242.81481536 355.10329267 237.32365612 347.09145005 231.84082031 339.07373047 C227.01965501 332.02510096 222.18369427 324.986731 217.34277344 317.95166016 C215.06091481 314.63508236 212.78054245 311.3174829 210.5 308 C209.58334024 306.66666192 208.66667358 305.33332858 207.75 304 C187.58333333 274.66666667 167.41666667 245.33333333 147.25 216 C146.79641113 215.3402417 146.34282227 214.6804834 145.87548828 214.00073242 C144.95716639 212.66497667 144.0388722 211.32920188 143.12060547 209.9934082 C140.85448843 206.69698255 138.58791941 203.40086973 136.3203125 200.10546875 C130.81481536 192.10329267 125.32365612 184.09145005 119.84082031 176.07373047 C115.01965501 169.02510096 110.18369427 161.986731 105.34277344 154.95166016 C103.06091481 151.63508236 100.78054245 148.3174829 98.5 145 C97.58334024 143.66666192 96.66667358 142.33332858 95.75 141 C75.58333333 111.66666667 55.41666667 82.33333333 35.25 53 C34.5696167 52.01036255 34.5696167 52.01036255 33.87548828 51.00073242 C32.95716639 49.66497667 32.0388722 48.32920188 31.12060547 46.9934082 C28.85448843 43.69698255 26.58791941 40.40086973 24.3203125 37.10546875 C23.42184676 35.79949859 22.52340934 34.49350895 21.625 33.1875 C21.18220703 32.54393555 20.73941406 31.90037109 20.28320312 31.23730469 C17.6900965 27.46601766 15.10392287 23.69009208 12.5234375 19.91015625 C11.64437744 18.62298706 11.64437744 18.62298706 10.74755859 17.30981445 C9.6064519 15.63832749 8.46611755 13.96631291 7.32666016 12.29370117 C6.8063623 11.53162354 6.28606445 10.7695459 5.75 9.984375 C5.29109375 9.31116211 4.8321875 8.63794922 4.359375 7.94433594 C3.39035612 6.55833264 2.37411643 5.20485002 1.328125 3.87597656 C0 2 0 2 0 0 Z M289 160 C290.10904849 161.75513722 291.21971381 163.50925286 292.33105469 165.26293945 C292.94938171 166.23987259 293.56770874 167.21680573 294.20477295 168.2233429 C296.42184106 171.65245673 298.79248042 174.92903185 301.25 178.1875 C305.52165791 183.93488856 309.63705708 189.76812244 313.67407227 195.68212891 C317.30752679 201.00238562 320.98746142 206.28835174 324.6875 211.5625 C329.80783345 218.863834 334.91067835 226.1770146 340 233.5 C346.74060189 243.19694944 353.50481426 252.87709233 360.28222656 262.54833984 C363.1896209 266.69786428 366.09468001 270.84902306 369 275 C370.16665575 276.66667431 371.33332241 278.33334098 372.5 280 C374.83333333 283.33333333 377.16666667 286.66666667 379.5 290 C380.07733887 290.8247583 380.65467773 291.6495166 381.24951172 292.49926758 C382.41784967 294.16834507 383.58614384 295.83745322 384.75439453 297.5065918 C387.64513489 301.63662338 390.53659854 305.76614446 393.4296875 309.89453125 C400.31728062 319.72500507 407.18294378 329.57042296 414.03417969 339.42626953 C420.09800618 348.14686679 426.18658311 356.84996444 432.28222656 365.54833984 C435.1896209 369.69786428 438.09468001 373.84902306 441 378 C442.16665575 379.66667431 443.33332241 381.33334098 444.5 383 C451.5 393 458.5 403 465.5 413 C466.07733887 413.8247583 466.65467773 414.6495166 467.24951172 415.49926758 C468.41784967 417.16834507 469.58614384 418.83745322 470.75439453 420.5065918 C473.64513489 424.63662338 476.53659854 428.76614446 479.4296875 432.89453125 C486.31728062 442.72500507 493.18294378 452.57042296 500.03417969 462.42626953 C506.09800618 471.14686679 512.18658311 479.84996444 518.28222656 488.54833984 C521.1896209 492.69786428 524.09468001 496.84902306 527 501 C528.16665575 502.66667431 529.33332241 504.33334098 530.5 506 C532.83333333 509.33333333 535.16666667 512.66666667 537.5 516 C538.07733887 516.8247583 538.65467773 517.6495166 539.24951172 518.49926758 C540.41784967 520.16834507 541.58614384 521.83745322 542.75439453 523.5065918 C545.64513489 527.63662338 548.53659854 531.76614446 551.4296875 535.89453125 C558.31728062 545.72500507 565.18294378 555.57042296 572.03417969 565.42626953 C578.09800618 574.14686679 584.18658311 582.84996444 590.28222656 591.54833984 C593.1896209 595.69786428 596.09468001 599.84902306 599 604 C600.16665575 605.66667431 601.33332241 607.33334098 602.5 609 C609.5 619 616.5 629 623.5 639 C624.07733887 639.8247583 624.65467773 640.6495166 625.24951172 641.49926758 C626.41784967 643.16834507 627.58614384 644.83745322 628.75439453 646.5065918 C631.64513489 650.63662338 634.53659854 654.76614446 637.4296875 658.89453125 C644.31728062 668.72500507 651.18294378 678.57042296 658.03417969 688.42626953 C664.09800618 697.14686679 670.18658311 705.84996444 676.28222656 714.54833984 C679.1896209 718.69786428 682.09468001 722.84902306 685 727 C686.16665575 728.66667431 687.33332241 730.33334098 688.5 732 C690.83333333 735.33333333 693.16666667 738.66666667 695.5 742 C696.07733887 742.8247583 696.65467773 743.6495166 697.24951172 744.49926758 C698.41784967 746.16834507 699.58614384 747.83745322 700.75439453 749.5065918 C703.64513489 753.63662338 706.53659854 757.76614446 709.4296875 761.89453125 C716.31728062 771.72500507 723.18294378 781.57042296 730.03417969 791.42626953 C736.09800618 800.14686679 742.18658311 808.84996444 748.28222656 817.54833984 C751.1896209 821.69786428 754.09468001 825.84902306 757 830 C758.16665575 831.66667431 759.33332241 833.33334098 760.5 835 C767.5 845 774.5 855 781.5 865 C782.07733887 865.8247583 782.65467773 866.6495166 783.24951172 867.49926758 C784.41784967 869.16834507 785.58614384 870.83745322 786.75439453 872.5065918 C789.64513489 876.63662338 792.53659854 880.76614446 795.4296875 884.89453125 C802.31728062 894.72500507 809.18294378 904.57042296 816.03417969 914.42626953 C822.09800618 923.14686679 828.18658311 931.84996444 834.28222656 940.54833984 C837.1896209 944.69786428 840.09468001 948.84902306 843 953 C844.16665575 954.66667431 845.33332241 956.33334098 846.5 958 C848.83333333 961.33333333 851.16666667 964.66666667 853.5 968 C854.07733887 968.8247583 854.65467773 969.6495166 855.24951172 970.49926758 C856.41784967 972.16834507 857.58614384 973.83745322 858.75439453 975.5065918 C861.64513489 979.63662338 864.53659854 983.76614446 867.4296875 987.89453125 C874.31728062 997.72500507 881.18294378 1007.57042296 888.03417969 1017.42626953 C894.09800618 1026.14686679 900.18658311 1034.84996444 906.28222656 1043.54833984 C909.1896209 1047.69786428 912.09468001 1051.84902306 915 1056 C916.16665575 1057.66667431 917.33332241 1059.33334098 918.5 1061 C925.5 1071 932.5 1081 939.5 1091 C940.07733887 1091.8247583 940.65467773 1092.6495166 941.24951172 1093.49926758 C942.41784967 1095.16834507 943.58614384 1096.83745322 944.75439453 1098.5065918 C947.64513489 1102.63662338 950.53659854 1106.76614446 953.4296875 1110.89453125 C960.31728062 1120.72500507 967.18294378 1130.57042296 974.03417969 1140.42626953 C980.09800618 1149.14686679 986.18658311 1157.84996444 992.28222656 1166.54833984 C995.1896209 1170.69786428 998.09468001 1174.84902306 1001 1179 C1002.16665575 1180.66667431 1003.33332241 1182.33334098 1004.5 1184 C1006.83333333 1187.33333333 1009.16666667 1190.66666667 1011.5 1194 C1012.07733887 1194.8247583 1012.65467773 1195.6495166 1013.24951172 1196.49926758 C1014.41784967 1198.16834507 1015.58614384 1199.83745322 1016.75439453 1201.5065918 C1019.64513489 1205.63662338 1022.53659854 1209.76614446 1025.4296875 1213.89453125 C1032.31728062 1223.72500507 1039.18294378 1233.57042296 1046.03417969 1243.42626953 C1052.09800618 1252.14686679 1058.18658311 1260.84996444 1064.28222656 1269.54833984 C1067.1896209 1273.69786428 1070.09468001 1277.84902306 1073 1282 C1074.16665575 1283.66667431 1075.33332241 1285.33334098 1076.5 1287 C1083.5 1297 1090.5 1307 1097.5 1317 C1098.07733887 1317.8247583 1098.65467773 1318.6495166 1099.24951172 1319.49926758 C1100.41784967 1321.16834507 1101.58614384 1322.83745322 1102.75439453 1324.5065918 C1105.64513489 1328.63662338 1108.53659854 1332.76614446 1111.4296875 1336.89453125 C1118.31728062 1346.72500507 1125.18294378 1356.57042296 1132.03417969 1366.42626953 C1138.66767434 1375.96612614 1145.33130803 1385.48472922 1152 1395 C1160.03231509 1406.46096617 1168.04582061 1417.93461424 1176.03417969 1429.42626953 C1182.09800618 1438.14686679 1188.18658311 1446.84996444 1194.28222656 1455.54833984 C1197.1896209 1459.69786428 1200.09468001 1463.84902306 1203 1468 C1204.16665575 1469.66667431 1205.33332241 1471.33334098 1206.5 1473 C1217 1488 1217 1488 1227.5 1503 C1228.07733887 1503.8247583 1228.65467773 1504.6495166 1229.24951172 1505.49926758 C1230.41784967 1507.16834507 1231.58614384 1508.83745322 1232.75439453 1510.5065918 C1235.64513489 1514.63662338 1238.53659854 1518.76614446 1241.4296875 1522.89453125 C1248.31728062 1532.72500507 1255.18294378 1542.57042296 1262.03417969 1552.42626953 C1268.09800618 1561.14686679 1274.18658311 1569.84996444 1280.28222656 1578.54833984 C1283.1896209 1582.69786428 1286.09468001 1586.84902306 1289 1591 C1290.16665575 1592.66667431 1291.33332241 1594.33334098 1292.5 1596 C1294.83333333 1599.33333333 1297.16666667 1602.66666667 1299.5 1606 C1300.07733887 1606.8247583 1300.65467773 1607.6495166 1301.24951172 1608.49926758 C1302.41784967 1610.16834507 1303.58614384 1611.83745322 1304.75439453 1613.5065918 C1307.64513489 1617.63662338 1310.53659854 1621.76614446 1313.4296875 1625.89453125 C1320.31728062 1635.72500507 1327.18294378 1645.57042296 1334.03417969 1655.42626953 C1340.09800618 1664.14686679 1346.18658311 1672.84996444 1352.28222656 1681.54833984 C1355.1896209 1685.69786428 1358.09468001 1689.84902306 1361 1694 C1362.16665575 1695.66667431 1363.33332241 1697.33334098 1364.5 1699 C1371.5 1709 1378.5 1719 1385.5 1729 C1386.07733887 1729.8247583 1386.65467773 1730.6495166 1387.24951172 1731.49926758 C1388.41784967 1733.16834507 1389.58614384 1734.83745322 1390.75439453 1736.5065918 C1393.64513489 1740.63662338 1396.53659854 1744.76614446 1399.4296875 1748.89453125 C1406.31728062 1758.72500507 1413.18294378 1768.57042296 1420.03417969 1778.42626953 C1426.09800618 1787.14686679 1432.18658311 1795.84996444 1438.28222656 1804.54833984 C1441.1896209 1808.69786428 1444.09468001 1812.84902306 1447 1817 C1448.16665575 1818.66667431 1449.33332241 1820.33334098 1450.5 1822 C1461 1837 1461 1837 1471.5 1852 C1472.07733887 1852.8247583 1472.65467773 1853.6495166 1473.24951172 1854.49926758 C1474.41784967 1856.16834507 1475.58614384 1857.83745322 1476.75439453 1859.5065918 C1479.64513489 1863.63662338 1482.53659854 1867.76614446 1485.4296875 1871.89453125 C1492.31728062 1881.72500507 1499.18294378 1891.57042296 1506.03417969 1901.42626953 C1512.09800618 1910.14686679 1518.18658311 1918.84996444 1524.28222656 1927.54833984 C1527.1896209 1931.69786428 1530.09468001 1935.84902306 1533 1940 C1534.16665575 1941.66667431 1535.33332241 1943.33334098 1536.5 1945 C1538.83333333 1948.33333333 1541.16666667 1951.66666667 1543.5 1955 C1544.07733887 1955.8247583 1544.65467773 1956.6495166 1545.24951172 1957.49926758 C1546.41784967 1959.16834507 1547.58614384 1960.83745322 1548.75439453 1962.5065918 C1551.64513489 1966.63662338 1554.53659854 1970.76614446 1557.4296875 1974.89453125 C1564.31728062 1984.72500507 1571.18294378 1994.57042296 1578.03417969 2004.42626953 C1584.09800618 2013.14686679 1590.18658311 2021.84996444 1596.28222656 2030.54833984 C1599.1896209 2034.69786428 1602.09468001 2038.84902306 1605 2043 C1606.16665575 2044.66667431 1607.33332241 2046.33334098 1608.5 2048 C1619 2063 1619 2063 1629.5 2078 C1630.07733887 2078.8247583 1630.65467773 2079.6495166 1631.24951172 2080.49926758 C1632.41784967 2082.16834507 1633.58614384 2083.83745322 1634.75439453 2085.5065918 C1637.64513489 2089.63662338 1640.53659854 2093.76614446 1643.4296875 2097.89453125 C1650.31728062 2107.72500507 1657.18294378 2117.57042296 1664.03417969 2127.42626953 C1670.09800618 2136.14686679 1676.18658311 2144.84996444 1682.28222656 2153.54833984 C1685.1896209 2157.69786428 1688.09468001 2161.84902306 1691 2166 C1692.16665575 2167.66667431 1693.33332241 2169.33334098 1694.5 2171 C1696.83333333 2174.33333333 1699.16666667 2177.66666667 1701.5 2181 C1702.07733887 2181.8247583 1702.65467773 2182.6495166 1703.24951172 2183.49926758 C1704.41784967 2185.16834507 1705.58614384 2186.83745322 1706.75439453 2188.5065918 C1709.64513489 2192.63662338 1712.53659854 2196.76614446 1715.4296875 2200.89453125 C1722.31728062 2210.72500507 1729.18294378 2220.57042296 1736.03417969 2230.42626953 C1742.09800618 2239.14686679 1748.18658311 2247.84996444 1754.28222656 2256.54833984 C1756.60548031 2259.8641605 1758.92720453 2263.18105054 1761.2487793 2266.49804688 C1762.40631992 2268.15181466 1763.56403176 2269.80546263 1764.72192383 2271.45898438 C1767.80344355 2275.85978653 1770.88205928 2280.26258847 1773.95703125 2284.66796875 C1774.60220703 2285.59158203 1775.24738281 2286.51519531 1775.91210938 2287.46679688 C1777.15771912 2289.2500799 1778.40253955 2291.03391457 1779.64648438 2292.81835938 C1780.20271484 2293.61435547 1780.75894531 2294.41035156 1781.33203125 2295.23046875 C1781.82421143 2295.93582764 1782.3163916 2296.64118652 1782.82348633 2297.36791992 C1783.90072273 2298.95409334 1783.90072273 2298.95409334 1785 2300 C1786.72543567 2300.09733247 1788.45489727 2300.12371482 1790.1830759 2300.12304783 C1791.31368712 2300.12503888 1792.44429834 2300.12702993 1793.6091705 2300.12908131 C1794.8669249 2300.12616847 1796.12467931 2300.12325563 1797.42054749 2300.12025452 C1798.75784607 2300.1206901 1800.09514457 2300.12156477 1801.43244261 2300.12284368 C1805.12430397 2300.12509115 1808.8161366 2300.12106395 1812.50799429 2300.11606562 C1816.48279232 2300.11176489 1820.45758861 2300.11320728 1824.43238831 2300.1139679 C1831.32466583 2300.11449337 1838.21693391 2300.11134411 1845.10920906 2300.10573006 C1855.07439872 2300.09761824 1865.0395838 2300.09500016 1875.00477641 2300.09374207 C1891.17091147 2300.09155104 1907.3370415 2300.0848896 1923.50317383 2300.07543945 C1939.21118138 2300.06626663 1954.91918757 2300.05918516 1970.62719727 2300.05493164 C1971.59472111 2300.05466892 1972.56224495 2300.05440619 1973.5590877 2300.05413551 C1978.41265614 2300.05283051 1983.2662246 2300.0515668 1988.11979306 2300.05032361 C2028.41319887 2300.03994943 2068.70659915 2300.02232975 2109 2300 C2107.89297447 2298.25125985 2106.78474919 2296.50327916 2105.67602539 2294.75561523 C2105.0590126 2293.78212631 2104.44199982 2292.80863739 2103.80628967 2291.8056488 C2101.45169057 2288.14832946 2098.97051805 2284.59744965 2096.4375 2281.0625 C2095.39152032 2279.59143497 2094.34596522 2278.12006799 2093.30078125 2276.6484375 C2092.76146973 2275.89014648 2092.2221582 2275.13185547 2091.66650391 2274.35058594 C2088.80111616 2270.30898716 2085.96353665 2266.24798097 2083.125 2262.1875 C2081.93750202 2260.48958192 2080.75000201 2258.79166526 2079.5625 2257.09375 C2078.67691406 2255.82724609 2078.67691406 2255.82724609 2077.7734375 2254.53515625 C2076.03766367 2252.0538408 2074.30037486 2249.57359426 2072.5625 2247.09375 C2065.67713052 2237.26744773 2058.81437756 2227.42572364 2051.96582031 2217.57373047 C2045.90199382 2208.85313321 2039.81341689 2200.15003556 2033.71777344 2191.45166016 C2030.8103791 2187.30213572 2027.90531999 2183.15097694 2025 2179 C2023.83334425 2177.33332569 2022.66667759 2175.66665902 2021.5 2174 C2014.5 2164 2007.5 2154 2000.5 2144 C1999.92266113 2143.1752417 1999.34532227 2142.3504834 1998.75048828 2141.50073242 C1997.58215033 2139.83165493 1996.41385616 2138.16254678 1995.24560547 2136.4934082 C1992.35486511 2132.36337662 1989.46340146 2128.23385554 1986.5703125 2124.10546875 C1979.68271938 2114.27499493 1972.81705622 2104.42957704 1965.96582031 2094.57373047 C1959.90199382 2085.85313321 1953.81341689 2077.15003556 1947.71777344 2068.45166016 C1944.8103791 2064.30213572 1941.90531999 2060.15097694 1939 2056 C1937.83334425 2054.33332569 1936.66667759 2052.66665902 1935.5 2051 C1933.16666667 2047.66666667 1930.83333333 2044.33333333 1928.5 2041 C1927.92266113 2040.1752417 1927.34532227 2039.3504834 1926.75048828 2038.50073242 C1925.58215033 2036.83165493 1924.41385616 2035.16254678 1923.24560547 2033.4934082 C1920.35486511 2029.36337662 1917.46340146 2025.23385554 1914.5703125 2021.10546875 C1907.68271938 2011.27499493 1900.81705622 2001.42957704 1893.96582031 1991.57373047 C1887.90199382 1982.85313321 1881.81341689 1974.15003556 1875.71777344 1965.45166016 C1872.8103791 1961.30213572 1869.90531999 1957.15097694 1867 1953 C1865.83334425 1951.33332569 1864.66667759 1949.66665902 1863.5 1948 C1856.5 1938 1849.5 1928 1842.5 1918 C1841.92266113 1917.1752417 1841.34532227 1916.3504834 1840.75048828 1915.50073242 C1839.58215033 1913.83165493 1838.41385616 1912.16254678 1837.24560547 1910.4934082 C1834.35486511 1906.36337662 1831.46340146 1902.23385554 1828.5703125 1898.10546875 C1821.68271938 1888.27499493 1814.81705622 1878.42957704 1807.96582031 1868.57373047 C1801.90199382 1859.85313321 1795.81341689 1851.15003556 1789.71777344 1842.45166016 C1786.8103791 1838.30213572 1783.90531999 1834.15097694 1781 1830 C1779.83334425 1828.33332569 1778.66667759 1826.66665902 1777.5 1825 C1775.16666667 1821.66666667 1772.83333333 1818.33333333 1770.5 1815 C1769.92266113 1814.1752417 1769.34532227 1813.3504834 1768.75048828 1812.50073242 C1767.58215033 1810.83165493 1766.41385616 1809.16254678 1765.24560547 1807.4934082 C1762.35486511 1803.36337662 1759.46340146 1799.23385554 1756.5703125 1795.10546875 C1749.68271938 1785.27499493 1742.81705622 1775.42957704 1735.96582031 1765.57373047 C1729.90199382 1756.85313321 1723.81341689 1748.15003556 1717.71777344 1739.45166016 C1714.8103791 1735.30213572 1711.90531999 1731.15097694 1709 1727 C1707.83334425 1725.33332569 1706.66667759 1723.66665902 1705.5 1722 C1698.5 1712 1691.5 1702 1684.5 1692 C1683.92266113 1691.1752417 1683.34532227 1690.3504834 1682.75048828 1689.50073242 C1681.58215033 1687.83165493 1680.41385616 1686.16254678 1679.24560547 1684.4934082 C1676.35486511 1680.36337662 1673.46340146 1676.23385554 1670.5703125 1672.10546875 C1663.68271938 1662.27499493 1656.81705622 1652.42957704 1649.96582031 1642.57373047 C1643.90199382 1633.85313321 1637.81341689 1625.15003556 1631.71777344 1616.45166016 C1628.8103791 1612.30213572 1625.90531999 1608.15097694 1623 1604 C1621.83334425 1602.33332569 1620.66667759 1600.66665902 1619.5 1599 C1617.16666667 1595.66666667 1614.83333333 1592.33333333 1612.5 1589 C1611.92266113 1588.1752417 1611.34532227 1587.3504834 1610.75048828 1586.50073242 C1609.58215033 1584.83165493 1608.41385616 1583.16254678 1607.24560547 1581.4934082 C1604.35486511 1577.36337662 1601.46340146 1573.23385554 1598.5703125 1569.10546875 C1591.68271938 1559.27499493 1584.81705622 1549.42957704 1577.96582031 1539.57373047 C1571.90199382 1530.85313321 1565.81341689 1522.15003556 1559.71777344 1513.45166016 C1556.8103791 1509.30213572 1553.90531999 1505.15097694 1551 1501 C1549.83334425 1499.33332569 1548.66667759 1497.66665902 1547.5 1496 C1540.5 1486 1533.5 1476 1526.5 1466 C1525.92266113 1465.1752417 1525.34532227 1464.3504834 1524.75048828 1463.50073242 C1523.58215033 1461.83165493 1522.41385616 1460.16254678 1521.24560547 1458.4934082 C1518.35486511 1454.36337662 1515.46340146 1450.23385554 1512.5703125 1446.10546875 C1505.68271938 1436.27499493 1498.81705622 1426.42957704 1491.96582031 1416.57373047 C1485.90199382 1407.85313321 1479.81341689 1399.15003556 1473.71777344 1390.45166016 C1470.8103791 1386.30213572 1467.90531999 1382.15097694 1465 1378 C1463.83334425 1376.33332569 1462.66667759 1374.66665902 1461.5 1373 C1459.16666667 1369.66666667 1456.83333333 1366.33333333 1454.5 1363 C1453.92266113 1362.1752417 1453.34532227 1361.3504834 1452.75048828 1360.50073242 C1451.58215033 1358.83165493 1450.41385616 1357.16254678 1449.24560547 1355.4934082 C1446.35486511 1351.36337662 1443.46340146 1347.23385554 1440.5703125 1343.10546875 C1433.68271938 1333.27499493 1426.81705622 1323.42957704 1419.96582031 1313.57373047 C1413.90199382 1304.85313321 1407.81341689 1296.15003556 1401.71777344 1287.45166016 C1398.8103791 1283.30213572 1395.90531999 1279.15097694 1393 1275 C1391.83334425 1273.33332569 1390.66667759 1271.66665902 1389.5 1270 C1387.16666667 1266.66666667 1384.83333333 1263.33333333 1382.5 1260 C1381.92266113 1259.1752417 1381.34532227 1258.3504834 1380.75048828 1257.50073242 C1379.58215033 1255.83165493 1378.41385616 1254.16254678 1377.24560547 1252.4934082 C1374.35486511 1248.36337662 1371.46340146 1244.23385554 1368.5703125 1240.10546875 C1361.68271938 1230.27499493 1354.81705622 1220.42957704 1347.96582031 1210.57373047 C1341.90199382 1201.85313321 1335.81341689 1193.15003556 1329.71777344 1184.45166016 C1326.8103791 1180.30213572 1323.90531999 1176.15097694 1321 1172 C1319.83334425 1170.33332569 1318.66667759 1168.66665902 1317.5 1167 C1310.5 1157 1303.5 1147 1296.5 1137 C1295.92266113 1136.1752417 1295.34532227 1135.3504834 1294.75048828 1134.50073242 C1293.58215033 1132.83165493 1292.41385616 1131.16254678 1291.24560547 1129.4934082 C1288.35486511 1125.36337662 1285.46340146 1121.23385554 1282.5703125 1117.10546875 C1275.68271938 1107.27499493 1268.81705622 1097.42957704 1261.96582031 1087.57373047 C1255.90199382 1078.85313321 1249.81341689 1070.15003556 1243.71777344 1061.45166016 C1240.8103791 1057.30213572 1237.90531999 1053.15097694 1235 1049 C1233.83334425 1047.33332569 1232.66667759 1045.66665902 1231.5 1044 C1224.5 1034 1217.5 1024 1210.5 1014 C1209.92266113 1013.1752417 1209.34532227 1012.3504834 1208.75048828 1011.50073242 C1207.58215033 1009.83165493 1206.41385616 1008.16254678 1205.24560547 1006.4934082 C1202.35486511 1002.36337662 1199.46340146 998.23385554 1196.5703125 994.10546875 C1189.68271938 984.27499493 1182.81705622 974.42957704 1175.96582031 964.57373047 C1169.90199382 955.85313321 1163.81341689 947.15003556 1157.71777344 938.45166016 C1154.8103791 934.30213572 1151.90531999 930.15097694 1149 926 C1147.83334425 924.33332569 1146.66667759 922.66665902 1145.5 921 C1143.16666667 917.66666667 1140.83333333 914.33333333 1138.5 911 C1137.92266113 910.1752417 1137.34532227 909.3504834 1136.75048828 908.50073242 C1135.58215033 906.83165493 1134.41385616 905.16254678 1133.24560547 903.4934082 C1130.35486511 899.36337662 1127.46340146 895.23385554 1124.5703125 891.10546875 C1117.68271938 881.27499493 1110.81705622 871.42957704 1103.96582031 861.57373047 C1097.90199382 852.85313321 1091.81341689 844.15003556 1085.71777344 835.45166016 C1082.8103791 831.30213572 1079.90531999 827.15097694 1077 823 C1075.83334425 821.33332569 1074.66667759 819.66665902 1073.5 818 C1071.16666667 814.66666667 1068.83333333 811.33333333 1066.5 808 C1065.92266113 807.1752417 1065.34532227 806.3504834 1064.75048828 805.50073242 C1063.58215033 803.83165493 1062.41385616 802.16254678 1061.24560547 800.4934082 C1058.35486511 796.36337662 1055.46340146 792.23385554 1052.5703125 788.10546875 C1045.68271938 778.27499493 1038.81705622 768.42957704 1031.96582031 758.57373047 C1025.90199382 749.85313321 1019.81341689 741.15003556 1013.71777344 732.45166016 C1010.8103791 728.30213572 1007.90531999 724.15097694 1005 720 C1003.83334425 718.33332569 1002.66667759 716.66665902 1001.5 715 C994.5 705 987.5 695 980.5 685 C979.92266113 684.1752417 979.34532227 683.3504834 978.75048828 682.50073242 C977.58215033 680.83165493 976.41385616 679.16254678 975.24560547 677.4934082 C972.35486511 673.36337662 969.46340146 669.23385554 966.5703125 665.10546875 C959.68271938 655.27499493 952.81705622 645.42957704 945.96582031 635.57373047 C939.90199382 626.85313321 933.81341689 618.15003556 927.71777344 609.45166016 C924.8103791 605.30213572 921.90531999 601.15097694 919 597 C917.83334425 595.33332569 916.66667759 593.66665902 915.5 592 C913.16666667 588.66666667 910.83333333 585.33333333 908.5 582 C907.92266113 581.1752417 907.34532227 580.3504834 906.75048828 579.50073242 C905.58215033 577.83165493 904.41385616 576.16254678 903.24560547 574.4934082 C900.35486511 570.36337662 897.46340146 566.23385554 894.5703125 562.10546875 C887.68271938 552.27499493 880.81705622 542.42957704 873.96582031 532.57373047 C867.90199382 523.85313321 861.81341689 515.15003556 855.71777344 506.45166016 C852.8103791 502.30213572 849.90531999 498.15097694 847 494 C845.83334425 492.33332569 844.66667759 490.66665902 843.5 489 C841.16666667 485.66666667 838.83333333 482.33333333 836.5 479 C835.92266113 478.1752417 835.34532227 477.3504834 834.75048828 476.50073242 C833.58215033 474.83165493 832.41385616 473.16254678 831.24560547 471.4934082 C828.35486511 467.36337662 825.46340146 463.23385554 822.5703125 459.10546875 C815.68271938 449.27499493 808.81705622 439.42957704 801.96582031 429.57373047 C795.90199382 420.85313321 789.81341689 412.15003556 783.71777344 403.45166016 C780.8103791 399.30213572 777.90531999 395.15097694 775 391 C773.83334425 389.33332569 772.66667759 387.66665902 771.5 386 C764.5 376 757.5 366 750.5 356 C749.92266113 355.1752417 749.34532227 354.3504834 748.75048828 353.50073242 C747.58215033 351.83165493 746.41385616 350.16254678 745.24560547 348.4934082 C742.35486511 344.36337662 739.46340146 340.23385554 736.5703125 336.10546875 C729.68271938 326.27499493 722.81705622 316.42957704 715.96582031 306.57373047 C709.90199382 297.85313321 703.81341689 289.15003556 697.71777344 280.45166016 C694.8103791 276.30213572 691.90531999 272.15097694 689 268 C687.83334425 266.33332569 686.66667759 264.66665902 685.5 263 C683.16666667 259.66666667 680.83333333 256.33333333 678.5 253 C677.6339917 251.76286255 677.6339917 251.76286255 676.75048828 250.50073242 C675.58215033 248.83165493 674.41385616 247.16254678 673.24560547 245.4934082 C670.35486511 241.36337662 667.46340146 237.23385554 664.5703125 233.10546875 C658.364389 224.24792339 652.17325271 215.38035152 646 206.5 C632.17160205 186.60158097 632.17160205 186.60158097 618.1875 166.8125 C617.77258301 166.22976318 617.35766602 165.64702637 616.93017578 165.04663086 C615.10148696 162.4113528 615.10148696 162.4113528 613 160 C611.27456433 159.90266753 609.54510273 159.87628518 607.8169241 159.87695217 C606.68631288 159.87496112 605.55570166 159.87297007 604.3908295 159.87091869 C602.50419789 159.87528795 602.50419789 159.87528795 600.57945251 159.87974548 C599.24215393 159.8793099 597.90485543 159.87843523 596.56755739 159.87715632 C592.87569603 159.87490885 589.1838634 159.87893605 585.49200571 159.88393438 C581.51720768 159.88823511 577.54241139 159.88679272 573.56761169 159.8860321 C566.67533417 159.88550663 559.78306609 159.88865589 552.89079094 159.89426994 C542.92560128 159.90238176 532.9604162 159.90499984 522.99522359 159.90625793 C506.82908853 159.90844896 490.6629585 159.9151104 474.49682617 159.92456055 C458.78881862 159.93373337 443.08081243 159.94081484 427.37280273 159.94506836 C425.92151697 159.94546244 425.92151697 159.94546244 424.4409123 159.94586449 C419.58734386 159.94716949 414.7337754 159.9484332 409.88020694 159.94967639 C369.58680113 159.96005057 329.29340085 159.97767025 289 160 Z " fill="#000000" transform="translate(0,0)"/>
</svg>
